<svg width="100" height="24" viewBox="0 0 100 24" fill="none" xmlns="http://www.w3.org/2000/svg">
<circle cx="12" cy="12" r="12" fill="#3A2C83"/>
<path d="M10.1728 8.60505H17.75V5.00986H10.1849C8.97725 4.938 7.76999 5.26099 6.73995 5.90619C5.85192 6.51546 5.17709 7.37586 4.82227 8.37959C4.43145 9.56258 4.21864 10.7815 4.25385 12C4.21825 13.219 4.43145 14.4734 4.82227 15.6205C5.17748 16.6242 5.85231 17.4846 6.73995 18.0939C7.76999 18.7391 8.97764 19.0617 10.1849 18.9902H17.7496V14.9962H10.1728C9.21236 14.9962 8.53636 14.7092 8.10956 14.1706C7.68275 13.632 7.43355 12.8423 7.43355 11.8006C7.43355 9.68223 8.32276 8.60505 10.1728 8.60505Z" fill="url(#paint0_linear_30_1075)"/>
<path fill-rule="evenodd" clip-rule="evenodd" d="M8.84938 11.2437L12.4011 11.9284C12.4011 11.9288 9.79609 14.6616 8.84938 11.2437Z" fill="white"/>
<path fill-rule="evenodd" clip-rule="evenodd" d="M17.178 11.2548L13.7346 11.9758C13.7346 11.9762 16.7168 14.6802 17.178 11.2548Z" fill="white"/>
<path d="M33.4931 16.656C32.8415 16.656 32.2483 16.5016 31.7134 16.1928C31.1784 15.8841 30.7581 15.4595 30.4525 14.9191C30.1508 14.3788 30 13.7775 30 13.1152C30 12.453 30.1508 11.8537 30.4525 11.3174C30.7581 10.7771 31.1784 10.3546 31.7134 10.0498C32.2483 9.74107 32.8436 9.58668 33.4991 9.58668C34.3196 9.58668 35.0295 9.82029 35.6288 10.2875C36.2281 10.7547 36.6202 11.3764 36.8052 12.1524H35.4478C35.2708 11.7664 35.0094 11.4637 34.6635 11.2443C34.3176 11.0209 33.9275 10.9091 33.4931 10.9091C32.8938 10.9091 32.3931 11.1204 31.9909 11.5429C31.5927 11.9655 31.3936 12.4896 31.3936 13.1152C31.3936 13.7409 31.5947 14.2671 31.9969 14.6937C32.3991 15.1202 32.8979 15.3335 33.4931 15.3335C33.9315 15.3335 34.3196 15.2198 34.6575 14.9923C34.9994 14.7648 35.2608 14.4458 35.4418 14.0355H36.8233C36.6383 14.8237 36.2422 15.4575 35.6348 15.9369C35.0275 16.4163 34.3136 16.656 33.4931 16.656Z" fill="#1E2124"/>
<path d="M43.0735 16.1989C42.5306 16.5036 41.9232 16.656 41.2516 16.656C40.5799 16.656 39.9726 16.5036 39.4296 16.1989C38.8866 15.8902 38.4603 15.4676 38.1506 14.9313C37.8409 14.391 37.6861 13.7876 37.6861 13.1213C37.6861 12.451 37.8409 11.8476 38.1506 11.3114C38.4603 10.771 38.8866 10.3485 39.4296 10.0438C39.9726 9.73904 40.5799 9.58668 41.2516 9.58668C41.9232 9.58668 42.5306 9.73904 43.0735 10.0438C43.6165 10.3485 44.0428 10.771 44.3525 11.3114C44.6622 11.8517 44.8171 12.455 44.8171 13.1213C44.8171 13.7876 44.6622 14.391 44.3525 14.9313C44.0428 15.4676 43.6165 15.8902 43.0735 16.1989ZM39.689 14.7119C40.0993 15.1263 40.6201 15.3335 41.2516 15.3335C41.883 15.3335 42.4019 15.1263 42.8081 14.7119C43.2183 14.2975 43.4234 13.7673 43.4234 13.1213C43.4234 12.4754 43.2183 11.9452 42.8081 11.5307C42.4019 11.1163 41.883 10.9091 41.2516 10.9091C40.6201 10.9091 40.0993 11.1163 39.689 11.5307C39.2828 11.9452 39.0797 12.4754 39.0797 13.1213C39.0797 13.7673 39.2828 14.2975 39.689 14.7119Z" fill="#1E2124"/>
<path d="M51.4594 7.33791H52.8289V16.4915H51.7912L51.6163 15.7297C50.9768 16.3513 50.1925 16.6621 49.2634 16.6621C48.2619 16.6621 47.4334 16.3249 46.7778 15.6504C46.1222 14.976 45.7944 14.133 45.7944 13.1213C45.7944 12.1056 46.1202 11.2626 46.7718 10.5922C47.4274 9.92187 48.2579 9.58668 49.2634 9.58668C50.108 9.58668 50.84 9.84873 51.4594 10.3728V7.33791ZM47.8094 14.7058C48.2197 15.1243 48.7385 15.3335 49.366 15.3335C49.9934 15.3335 50.5142 15.1223 50.9285 14.6997C51.3468 14.2772 51.5559 13.7511 51.5559 13.1213C51.5559 12.4916 51.3468 11.9655 50.9285 11.5429C50.5142 11.1204 49.9934 10.9091 49.366 10.9091C48.7385 10.9091 48.2197 11.1204 47.8094 11.5429C47.3992 11.9614 47.1941 12.4875 47.1941 13.1213C47.1941 13.7551 47.3992 14.2833 47.8094 14.7058Z" fill="#1E2124"/>
<path d="M61.1303 13.1396C61.1303 13.2696 61.1203 13.42 61.1002 13.5906H55.6825C55.767 14.135 55.9922 14.5657 56.3582 14.8826C56.7242 15.1995 57.1807 15.3579 57.7277 15.3579C58.1219 15.3579 58.4738 15.2706 58.7835 15.0959C59.0972 14.9212 59.3425 14.6794 59.5195 14.3707H60.9674C60.702 15.0817 60.2817 15.6403 59.7065 16.0466C59.1314 16.4529 58.4718 16.656 57.7277 16.656C56.7544 16.656 55.9399 16.3188 55.2843 15.6444C54.6288 14.9659 54.301 14.1249 54.301 13.1213C54.301 12.4591 54.4498 11.8578 54.7474 11.3174C55.045 10.7771 55.4553 10.3546 55.9781 10.0498C56.501 9.74107 57.0842 9.58668 57.7277 9.58668C58.3913 9.58668 58.9846 9.74716 59.5074 10.0681C60.0303 10.385 60.4305 10.8137 60.708 11.354C60.9896 11.8903 61.1303 12.4855 61.1303 13.1396ZM57.7277 10.836C57.2169 10.836 56.7825 10.9823 56.4246 11.2748C56.0666 11.5673 55.8313 11.9655 55.7187 12.4693H59.7548C59.6301 11.9573 59.3868 11.5572 59.0248 11.2687C58.6668 10.9802 58.2345 10.836 57.7277 10.836Z" fill="#1E2124"/>
<path d="M65.28 16.6259C64.5198 16.6259 63.9105 16.4451 63.452 16.0835C62.9935 15.7179 62.7421 15.2182 62.6978 14.5844H63.2891C63.3333 15.0516 63.5324 15.4152 63.8863 15.6752C64.2443 15.9312 64.7149 16.0592 65.2981 16.0592C65.8813 16.0592 66.3498 15.9352 66.7038 15.6874C67.0577 15.4355 67.2347 15.0983 67.2347 14.6758C67.2347 14.5498 67.2206 14.434 67.1924 14.3284C67.1643 14.2187 67.118 14.1232 67.0537 14.042C66.9933 13.9566 66.929 13.8815 66.8606 13.8165C66.7963 13.7515 66.7078 13.6946 66.5952 13.6458C66.4866 13.593 66.388 13.5483 66.2995 13.5118C66.2111 13.4752 66.0944 13.4407 65.9496 13.4082C65.8048 13.3757 65.6822 13.3513 65.5816 13.335C65.4851 13.3147 65.3564 13.2903 65.1955 13.2619C65.0266 13.2335 64.8979 13.2111 64.8094 13.1949C64.7209 13.1786 64.5962 13.1522 64.4353 13.1156C64.2745 13.0791 64.1498 13.0466 64.0613 13.0181C63.9768 12.9856 63.8682 12.943 63.7355 12.8902C63.6068 12.8333 63.5043 12.7764 63.4278 12.7195C63.3554 12.6586 63.275 12.5854 63.1865 12.5001C63.098 12.4148 63.0317 12.3234 62.9874 12.2259C62.9432 12.1243 62.905 12.0085 62.8728 11.8785C62.8406 11.7485 62.8245 11.6083 62.8245 11.458C62.8245 10.9095 63.0478 10.4667 63.4942 10.1295C63.9406 9.78819 64.5238 9.61756 65.2438 9.61756C65.9677 9.61756 66.5449 9.79226 66.9752 10.1417C67.4096 10.487 67.6409 10.9603 67.669 11.5616H67.0899C67.0617 11.1228 66.8847 10.7816 66.559 10.5378C66.2332 10.294 65.7908 10.1721 65.2317 10.1721C64.6847 10.1721 64.2443 10.29 63.9105 10.5256C63.5807 10.7572 63.4158 11.0639 63.4158 11.4458C63.4158 11.5921 63.4359 11.7241 63.4761 11.842C63.5203 11.9557 63.5927 12.0552 63.6933 12.1406C63.7938 12.2218 63.8904 12.2889 63.9829 12.3417C64.0754 12.3945 64.2121 12.4453 64.3931 12.494C64.5741 12.5387 64.7209 12.5733 64.8335 12.5976C64.9461 12.6179 65.1151 12.6464 65.3403 12.683C65.654 12.7358 65.8933 12.7805 66.0582 12.817C66.2272 12.8495 66.4423 12.9145 66.7038 13.012C66.9692 13.1096 67.1703 13.2213 67.3071 13.3472C67.4438 13.4732 67.5665 13.6479 67.6751 13.8713C67.7837 14.0948 67.838 14.3548 67.838 14.6514C67.838 15.2486 67.6027 15.728 67.1321 16.0896C66.6655 16.4472 66.0482 16.6259 65.28 16.6259Z" fill="#1E2124"/>
<path d="M72.0068 15.919H72.7368V16.4918H71.9404C71.2888 16.4918 70.774 16.3009 70.396 15.919C70.0219 15.5371 69.8349 15.013 69.8349 14.3467V10.3123H68.7248V10.1721L70.3236 8.56325H70.4442V9.75163H72.6825V10.3123H70.4442V14.3284C70.4442 14.8362 70.579 15.2283 70.8484 15.5046C71.1219 15.7809 71.508 15.919 72.0068 15.919Z" fill="#1E2124"/>
<path d="M79.0594 15.8215C78.5446 16.3578 77.8508 16.6259 76.978 16.6259C76.1052 16.6259 75.4094 16.3578 74.8906 15.8215C74.3757 15.2811 74.1183 14.56 74.1183 13.658V9.75163H74.7277V13.5727C74.7277 14.3325 74.9288 14.9338 75.331 15.3766C75.7372 15.8154 76.2862 16.0348 76.978 16.0348C77.6738 16.0348 78.2228 15.8154 78.625 15.3766C79.0272 14.9338 79.2283 14.3325 79.2283 13.5727V9.75163H79.8376V13.658C79.8376 14.56 79.5782 15.2811 79.0594 15.8215Z" fill="#1E2124"/>
<path d="M87.7228 7.36269H88.3261V16.4918H87.8434L87.7529 15.0841C87.4513 15.5635 87.0511 15.9413 86.5524 16.2176C86.0536 16.4898 85.4966 16.6259 84.8812 16.6259C84.2337 16.6259 83.6485 16.4736 83.1256 16.1689C82.6068 15.8641 82.2006 15.4457 81.907 14.9134C81.6133 14.3772 81.4665 13.7799 81.4665 13.1217C81.4665 12.4636 81.6133 11.8684 81.907 11.3361C82.2006 10.7998 82.6068 10.3793 83.1256 10.0746C83.6485 9.76991 84.2337 9.61756 84.8812 9.61756C85.4845 9.61756 86.0315 9.7496 86.5222 10.0137C87.0169 10.2778 87.4171 10.6434 87.7228 11.1106V7.36269ZM84.9235 16.0348C85.7399 16.0348 86.4156 15.7585 86.9506 15.206C87.4895 14.6534 87.759 13.9587 87.759 13.1217C87.759 12.2848 87.4895 11.5901 86.9506 11.0375C86.4156 10.485 85.7399 10.2087 84.9235 10.2087C84.111 10.2087 83.4333 10.487 82.8903 11.0436C82.3514 11.5961 82.0819 12.2889 82.0819 13.1217C82.0819 13.9506 82.3514 14.6433 82.8903 15.1999C83.4333 15.7565 84.111 16.0348 84.9235 16.0348Z" fill="#1E2124"/>
<path d="M90.5764 8.36214V7.49676H91.3366V8.36214H90.5764ZM90.6548 16.4918V9.75163H91.2581V16.4918H90.6548Z" fill="#1E2124"/>
<path d="M96.5068 16.6259C95.8513 16.6259 95.256 16.4756 94.7211 16.1749C94.1902 15.8702 93.7719 15.4518 93.4662 14.9195C93.1646 14.3832 93.0137 13.784 93.0137 13.1217C93.0137 12.1142 93.3455 11.2792 94.0092 10.617C94.6768 9.95071 95.5094 9.61756 96.5068 9.61756C97.5043 9.61756 98.3348 9.95071 98.9985 10.617C99.6661 11.2833 100 12.1182 100 13.1217C100 14.1253 99.6661 14.9602 98.9985 15.6265C98.3348 16.2928 97.5043 16.6259 96.5068 16.6259ZM96.5068 16.0348C97.3354 16.0348 98.0211 15.7585 98.5641 15.206C99.1111 14.6534 99.3846 13.9587 99.3846 13.1217C99.3846 12.2848 99.1111 11.5901 98.5641 11.0375C98.0211 10.485 97.3354 10.2087 96.5068 10.2087C95.6783 10.2087 94.9905 10.485 94.4436 11.0375C93.9006 11.586 93.6291 12.2807 93.6291 13.1217C93.6291 13.9587 93.9026 14.6534 94.4496 15.206C94.9966 15.7585 95.6823 16.0348 96.5068 16.0348Z" fill="#1E2124"/>
<defs>
<linearGradient id="paint0_linear_30_1075" x1="4.24979" y1="12.0004" x2="17.7497" y2="12.0004" gradientUnits="userSpaceOnUse">
<stop stop-color="#ED722F"/>
<stop offset="0.2694" stop-color="#ED8225"/>
<stop offset="0.7101" stop-color="#EE9719"/>
<stop offset="1" stop-color="#EE9F14"/>
</linearGradient>
</defs>
</svg>
